<svg width="215" height="44" viewBox="0 0 215 44" fill="none" xmlns="http://www.w3.org/2000/svg">
<g clip-path="url(#clip0_8852:2351)">
<path d="M47.6208 40.7162L42.2698 30.2759C44.3167 30.6803 46.5298 30.9084 48.639 30.9187C51.3093 30.9498 54.842 30.5351 57.7721 29.3532C61.7619 27.8395 65.0037 24.2108 65.0037 24.2108L74.3757 42.4684C75.1134 43.3082 76.4226 43.6814 77.8461 43.049C79.7475 42.2195 79.1241 40.3223 79.1241 40.3223C73.1601 28.6275 68.2455 18.9959 62.2814 7.30106C61.8243 6.58569 60.5255 6.22282 59.1851 6.92783C57.5747 7.77798 57.2941 9.08431 57.6266 9.70638C60.2346 14.8695 61.6373 17.6169 64.2452 22.7801C64.2452 22.7801 61.4087 26.782 56.1304 28.503C51.5691 29.799 46.1142 29.9856 41.5009 28.8141L27.3389 1.19448C27.0272 0.59315 25.8116 -0.371048 24.3362 0.178441C22.9231 0.790136 22.6321 1.67139 22.6321 1.67139C20.1904 6.26429 18.5176 9.39534 16.0759 13.9882C15.9824 14.1541 16.0759 14.714 16.5538 14.8488C17.1461 15.0146 17.3954 14.4444 17.4266 14.403C19.2657 10.9505 21.1048 7.49805 22.9335 4.03523L34.4875 26.5954L32.0665 25.7245C29.8222 24.8432 27.474 24.076 25.0843 23.4332C15.8577 21.1938 10.0184 25.6105 9.7482 25.8282L0.854126 42.4995C0.906077 42.8727 1.15544 43.163 1.46715 43.2356C1.88276 43.3289 2.37111 43.0179 2.46462 42.4995C5.29077 37.2016 8.12732 31.8933 10.9535 26.585C12.7614 25.4549 15.2239 24.7396 17.5513 24.3974C19.8787 24.0553 22.2789 24.1693 24.5336 24.7085C26.8506 25.3409 29.0949 26.077 31.2769 26.9375C32.6276 27.4248 33.9264 27.9121 35.3914 28.3994L42.6646 42.5306C43.3608 43.5984 44.5349 43.671 46.1765 43.1008C47.6727 42.4373 47.7974 41.3383 47.6208 40.7162Z" fill="white"/>
<path d="M108.29 36.0923C109.048 35.7813 109.422 35.1903 109.422 34.3194C109.422 33.0649 108.518 32.3081 107.032 32.3081H104.123V39.9076H107.136C108.643 39.9076 109.557 39.1404 109.557 37.8756C109.568 36.9736 109.131 36.3619 108.29 36.0923ZM105.162 33.2205H106.97C107.864 33.2205 108.373 33.6559 108.373 34.4128C108.373 35.2007 107.884 35.6672 107.032 35.6672H105.162V33.2205ZM107.126 38.9953H105.162V36.5589H107.126C107.999 36.5589 108.508 37.0047 108.508 37.7615C108.497 38.5391 108.009 38.9953 107.126 38.9953Z" fill="white"/>
<path d="M180.627 32.1733C178.476 32.1733 176.969 33.8011 176.969 36.1027C176.969 38.4147 178.465 40.0321 180.616 40.0321C182.777 40.0321 184.294 38.4147 184.294 36.1027C184.294 33.7907 182.788 32.1733 180.627 32.1733ZM180.627 39.0471C179.078 39.0471 178.06 37.8652 178.06 36.1027C178.06 34.3402 179.078 33.1686 180.627 33.1686C182.175 33.1686 183.203 34.3402 183.203 36.1027C183.203 37.8548 182.175 39.0471 180.627 39.0471Z" fill="white"/>
<path d="M144.583 36.0923C145.341 35.7813 145.715 35.1903 145.715 34.3194C145.715 33.0649 144.811 32.3081 143.326 32.3081H140.416V39.9076H143.429C144.936 39.9076 145.85 39.1404 145.85 37.8756C145.85 36.9736 145.424 36.3619 144.583 36.0923ZM141.455 33.2205H143.263C144.157 33.2205 144.666 33.6559 144.666 34.4128C144.666 35.2007 144.178 35.6672 143.326 35.6672H141.455V33.2205ZM143.409 38.9953H141.445V36.5589H143.409C144.281 36.5589 144.791 37.0047 144.791 37.7615C144.791 38.5391 144.292 38.9953 143.409 38.9953Z" fill="white"/>
<path d="M154.329 32.3081L151.544 39.9076H152.615L153.29 38.0207H156.49L157.176 39.9076H158.256L155.461 32.3081H154.329ZM153.612 37.1187L154.765 33.9462L154.89 33.5004L155.015 33.9462L156.189 37.1187H153.612Z" fill="white"/>
<path d="M193.781 35.7606L192.524 35.4703C191.807 35.3044 191.464 34.9312 191.464 34.3298C191.464 33.5833 192.087 33.0961 193.043 33.0961C193.895 33.0961 194.435 33.5419 194.487 34.2987H195.526C195.443 32.982 194.508 32.1733 193.053 32.1733C191.484 32.1733 190.435 33.0546 190.435 34.3609C190.435 35.4495 191.079 36.1649 192.316 36.4552L193.573 36.7351C194.3 36.901 194.633 37.2846 194.633 37.8756C194.633 38.6324 193.989 39.1093 192.981 39.1093C192.025 39.1093 191.412 38.6428 191.391 37.9274H190.342C190.404 39.2338 191.433 40.0424 192.981 40.0424C194.602 40.0424 195.672 39.1716 195.672 37.803C195.661 36.7248 195.028 36.0509 193.781 35.7606Z" fill="white"/>
<path d="M167.026 32.3081H164.553V39.9076H167.067C169.322 39.9076 170.839 38.3732 170.839 36.1131C170.839 33.8425 169.301 32.3081 167.026 32.3081ZM166.995 38.9538H165.581V33.2619H166.953C168.688 33.2619 169.769 34.3505 169.769 36.1234C169.769 37.8548 168.688 38.9538 166.995 38.9538Z" fill="white"/>
<path d="M133.746 34.589C133.746 33.1686 132.779 32.3081 131.148 32.3081H128.27V39.9076H129.299V36.901H131.252L132.675 39.9076H133.818L132.27 36.704C133.216 36.393 133.746 35.6361 133.746 34.589ZM131.148 35.9886H129.299V33.2308H131.138C132.083 33.2308 132.655 33.7181 132.655 34.5994C132.655 35.4703 132.104 35.9886 131.148 35.9886Z" fill="white"/>
<path d="M118.046 32.3081L115.261 39.9076H116.332L117.007 38.0207H120.207L120.893 39.9076H121.974L119.179 32.3081H118.046ZM117.329 37.1187L118.482 33.9462L118.607 33.5004L118.732 33.9462L119.906 37.1187H117.329Z" fill="white"/>
<path d="M175.12 11.4483H163.597V3.39258H162.413V20.8829H163.597V12.5369H175.12V20.8829H176.304V3.39258H175.12V11.4483Z" fill="white"/>
<path d="M123.137 12.651H131.429V11.5727H123.137V4.48119H132.239V3.39258H121.953V20.8829H132.27V19.7943H123.137V12.651Z" fill="white"/>
<path d="M191.516 3.39258H190.331V20.8829H199.859V19.7943H191.516V3.39258Z" fill="white"/>
<path d="M183.91 3.39258H182.726V20.8726H183.91V3.39258Z" fill="white"/>
<path d="M144.167 11.8943L141.061 11.1063C139.066 10.5879 138.047 9.47857 138.047 7.80937C138.047 5.62178 139.845 4.19104 142.567 4.19104C144.957 4.19104 146.443 5.42479 146.692 7.59165H147.928C147.586 4.782 145.58 3.11279 142.567 3.11279C139.118 3.11279 136.863 4.95825 136.863 7.81974C136.863 10.0903 138.266 11.5832 140.905 12.2571L143.939 13.0243C146.006 13.5427 147.025 14.7039 147.025 16.4249C147.025 18.6644 145.227 20.0951 142.432 20.0951C139.814 20.0951 138.016 18.7681 137.912 16.7671H136.655C136.925 19.5042 139.149 21.2045 142.432 21.2045C145.934 21.2045 148.209 19.3279 148.209 16.4042C148.219 14.1337 146.806 12.5578 144.167 11.8943Z" fill="white"/>
<path d="M92.2055 3.39258L85.7115 20.8726H86.896L88.7247 15.9686H97.463L99.3124 20.8726H100.518L93.951 3.39258H92.2055ZM89.1196 14.9007L92.9224 4.65744C92.9744 4.53303 93.0471 4.31531 93.0679 4.21163C93.0886 4.33604 93.1718 4.51229 93.2133 4.65744L97.0681 14.9007H89.1196Z" fill="white"/>
<path d="M205.73 19.7943V3.39258H204.545V20.8829H214.073V19.7943H205.73Z" fill="white"/>
<path d="M111.635 3.39258H105.1V20.8726H106.284V14.2994H111.635C114.939 14.2994 117.018 11.8837 117.018 8.80453C117.007 5.55943 114.96 3.39258 111.635 3.39258ZM111.438 13.2212H106.284V4.48119H111.594C114.16 4.48119 115.812 6.12966 115.812 8.76306C115.802 11.3757 114.171 13.2212 111.438 13.2212Z" fill="white"/>
</g>
<defs>
<clipPath id="clip0_8852:2351">
<rect width="213.219" height="43.4304" fill="white" transform="translate(0.854126 0.0126953)"/>
</clipPath>
</defs>
</svg>
